<mxfile host="Electron" modified="2024-06-21T16:08:01.050Z" agent="Mozilla/5.0 (Windows NT 10.0; Win64; x64) AppleWebKit/537.36 (KHTML, like Gecko) draw.io/24.5.3 Chrome/124.0.6367.207 Electron/30.0.6 Safari/537.36" etag="EL5EQqfNGRMY7PfCs46y" version="24.5.3" type="device">
  <diagram name="Page-1" id="yMgC6Jy0y79UidPjM0NU">
    <mxGraphModel dx="1050" dy="621" grid="1" gridSize="10" guides="1" tooltips="1" connect="1" arrows="1" fold="1" page="1" pageScale="1" pageWidth="850" pageHeight="1100" math="0" shadow="0">
      <root>
        <mxCell id="0" />
        <mxCell id="1" parent="0" />
        <mxCell id="lZOTxh8ugJPZSDa8sgHe-1" value="" style="swimlane;startSize=0;" parent="1" vertex="1">
          <mxGeometry x="263" y="80" width="325" height="700" as="geometry">
            <mxRectangle x="263" y="80" width="50" height="40" as="alternateBounds" />
          </mxGeometry>
        </mxCell>
        <mxCell id="UQgOUcCZ9-bR961eDMsj-1" value="Login / Logout" style="ellipse;whiteSpace=wrap;html=1;" vertex="1" parent="lZOTxh8ugJPZSDa8sgHe-1">
          <mxGeometry x="92.5" y="50" width="140" height="30" as="geometry" />
        </mxCell>
        <mxCell id="UQgOUcCZ9-bR961eDMsj-2" value="User Registration&lt;span style=&quot;color: rgba(0, 0, 0, 0); font-family: monospace; text-align: start; text-wrap: nowrap; font-size: 0px;&quot;&gt;%3CmxGraphModel%3E%3Croot%3E%3CmxCell%20id%3D%220%22%2F%3E%3CmxCell%20id%3D%221%22%20parent%3D%220%22%2F%3E%3CmxCell%20id%3D%222%22%20value%3D%22Login%20%2F%20Logout%22%20style%3D%22ellipse%3BwhiteSpace%3Dwrap%3Bhtml%3D1%3B%22%20vertex%3D%221%22%20parent%3D%221%22%3E%3CmxGeometry%20x%3D%22370%22%20y%3D%22190%22%20width%3D%22140%22%20height%3D%2240%22%20as%3D%22geometry%22%2F%3E%3C%2FmxCell%3E%3C%2Froot%3E%3C%2FmxGraphModel%3E&lt;/span&gt;&lt;span style=&quot;color: rgba(0, 0, 0, 0); font-family: monospace; text-align: start; text-wrap: nowrap; font-size: 0px;&quot;&gt;%3CmxGraphModel%3E%3Croot%3E%3CmxCell%20id%3D%220%22%2F%3E%3CmxCell%20id%3D%221%22%20parent%3D%220%22%2F%3E%3CmxCell%20id%3D%222%22%20value%3D%22Login%20%2F%20Logout%22%20style%3D%22ellipse%3BwhiteSpace%3Dwrap%3Bhtml%3D1%3B%22%20vertex%3D%221%22%20parent%3D%221%22%3E%3CmxGeometry%20x%3D%22370%22%20y%3D%22190%22%20width%3D%22140%22%20height%3D%2240%22%20as%3D%22geometry%22%2F%3E%3C%2FmxCell%3E%3C%2Froot%3E%3C%2FmxGraphModel%3E&lt;/span&gt;" style="ellipse;whiteSpace=wrap;html=1;" vertex="1" parent="lZOTxh8ugJPZSDa8sgHe-1">
          <mxGeometry x="92.5" y="90" width="140" height="30" as="geometry" />
        </mxCell>
        <mxCell id="UQgOUcCZ9-bR961eDMsj-3" value="Document Upload" style="ellipse;whiteSpace=wrap;html=1;" vertex="1" parent="lZOTxh8ugJPZSDa8sgHe-1">
          <mxGeometry x="92.5" y="130" width="140" height="30" as="geometry" />
        </mxCell>
        <mxCell id="UQgOUcCZ9-bR961eDMsj-4" value="Repayment Schedual&lt;span style=&quot;color: rgba(0, 0, 0, 0); font-family: monospace; font-size: 0px; text-align: start; text-wrap: nowrap;&quot;&gt;%3CmxGraphModel%3E%3Croot%3E%3CmxCell%20id%3D%220%22%2F%3E%3CmxCell%20id%3D%221%22%20parent%3D%220%22%2F%3E%3CmxCell%20id%3D%222%22%20value%3D%22Login%20%2F%20Logout%22%20style%3D%22ellipse%3BwhiteSpace%3Dwrap%3Bhtml%3D1%3B%22%20vertex%3D%221%22%20parent%3D%221%22%3E%3CmxGeometry%20x%3D%22370%22%20y%3D%22190%22%20width%3D%22140%22%20height%3D%2240%22%20as%3D%22geometry%22%2F%3E%3C%2FmxCell%3E%3C%2Froot%3E%3C%2FmxGraphModel%3E&lt;/span&gt;" style="ellipse;whiteSpace=wrap;html=1;" vertex="1" parent="lZOTxh8ugJPZSDa8sgHe-1">
          <mxGeometry x="82.5" y="170" width="160" height="30" as="geometry" />
        </mxCell>
        <mxCell id="UQgOUcCZ9-bR961eDMsj-5" value="Application Review&lt;span style=&quot;color: rgba(0, 0, 0, 0); font-family: monospace; font-size: 0px; text-align: start; text-wrap: nowrap;&quot;&gt;%3CmxGraphModel%3E%3Croot%3E%3CmxCell%20id%3D%220%22%2F%3E%3CmxCell%20id%3D%221%22%20parent%3D%220%22%2F%3E%3CmxCell%20id%3D%222%22%20value%3D%22Login%20%2F%20Logout%22%20style%3D%22ellipse%3BwhiteSpace%3Dwrap%3Bhtml%3D1%3B%22%20vertex%3D%221%22%20parent%3D%221%22%3E%3CmxGeometry%20x%3D%22370%22%20y%3D%22190%22%20width%3D%22140%22%20height%3D%2240%22%20as%3D%22geometry%22%2F%3E%3C%2FmxCell%3E%3C%2Froot%3E%3C%2FmxGraphModel%3E&lt;/span&gt;" style="ellipse;whiteSpace=wrap;html=1;" vertex="1" parent="lZOTxh8ugJPZSDa8sgHe-1">
          <mxGeometry x="92.5" y="210" width="140" height="30" as="geometry" />
        </mxCell>
        <mxCell id="UQgOUcCZ9-bR961eDMsj-6" value="Credit Check" style="ellipse;whiteSpace=wrap;html=1;" vertex="1" parent="lZOTxh8ugJPZSDa8sgHe-1">
          <mxGeometry x="92.5" y="250" width="140" height="30" as="geometry" />
        </mxCell>
        <mxCell id="UQgOUcCZ9-bR961eDMsj-7" value="Document Verification" style="ellipse;whiteSpace=wrap;html=1;" vertex="1" parent="lZOTxh8ugJPZSDa8sgHe-1">
          <mxGeometry x="92.5" y="290" width="140" height="30" as="geometry" />
        </mxCell>
        <mxCell id="UQgOUcCZ9-bR961eDMsj-8" value="Task Management" style="ellipse;whiteSpace=wrap;html=1;" vertex="1" parent="lZOTxh8ugJPZSDa8sgHe-1">
          <mxGeometry x="92.5" y="330" width="140" height="30" as="geometry" />
        </mxCell>
        <mxCell id="UQgOUcCZ9-bR961eDMsj-9" value="Loan Approval" style="ellipse;whiteSpace=wrap;html=1;" vertex="1" parent="lZOTxh8ugJPZSDa8sgHe-1">
          <mxGeometry x="92.5" y="370" width="140" height="30" as="geometry" />
        </mxCell>
        <mxCell id="UQgOUcCZ9-bR961eDMsj-10" value="Reporting" style="ellipse;whiteSpace=wrap;html=1;" vertex="1" parent="lZOTxh8ugJPZSDa8sgHe-1">
          <mxGeometry x="82.5" y="410" width="160" height="30" as="geometry" />
        </mxCell>
        <mxCell id="UQgOUcCZ9-bR961eDMsj-11" value="Document Approval&lt;span style=&quot;color: rgba(0, 0, 0, 0); font-family: monospace; font-size: 0px; text-align: start; text-wrap: nowrap;&quot;&gt;%3CmxGraphModel%3E%3Croot%3E%3CmxCell%20id%3D%220%22%2F%3E%3CmxCell%20id%3D%221%22%20parent%3D%220%22%2F%3E%3CmxCell%20id%3D%222%22%20value%3D%22Login%20%2F%20Logout%22%20style%3D%22ellipse%3BwhiteSpace%3Dwrap%3Bhtml%3D1%3B%22%20vertex%3D%221%22%20parent%3D%221%22%3E%3CmxGeometry%20x%3D%22370%22%20y%3D%22190%22%20width%3D%22140%22%20height%3D%2240%22%20as%3D%22geometry%22%2F%3E%3C%2FmxCell%3E%3C%2Froot%3E%3C%2FmxGraphModel%3E&lt;/span&gt;" style="ellipse;whiteSpace=wrap;html=1;" vertex="1" parent="lZOTxh8ugJPZSDa8sgHe-1">
          <mxGeometry x="92.5" y="450" width="140" height="30" as="geometry" />
        </mxCell>
        <mxCell id="UQgOUcCZ9-bR961eDMsj-12" value="Audit Trial Access" style="ellipse;whiteSpace=wrap;html=1;" vertex="1" parent="lZOTxh8ugJPZSDa8sgHe-1">
          <mxGeometry x="92.5" y="490" width="140" height="30" as="geometry" />
        </mxCell>
        <mxCell id="UQgOUcCZ9-bR961eDMsj-13" value="User Handling" style="ellipse;whiteSpace=wrap;html=1;" vertex="1" parent="lZOTxh8ugJPZSDa8sgHe-1">
          <mxGeometry x="92.5" y="530" width="140" height="30" as="geometry" />
        </mxCell>
        <mxCell id="UQgOUcCZ9-bR961eDMsj-15" value="Roal Authorize" style="ellipse;whiteSpace=wrap;html=1;" vertex="1" parent="lZOTxh8ugJPZSDa8sgHe-1">
          <mxGeometry x="92.5" y="570" width="140" height="30" as="geometry" />
        </mxCell>
        <mxCell id="UQgOUcCZ9-bR961eDMsj-16" value="Complain Monitering" style="ellipse;whiteSpace=wrap;html=1;" vertex="1" parent="lZOTxh8ugJPZSDa8sgHe-1">
          <mxGeometry x="82.5" y="610" width="160" height="30" as="geometry" />
        </mxCell>
        <mxCell id="UQgOUcCZ9-bR961eDMsj-17" value="Reporting Generation" style="ellipse;whiteSpace=wrap;html=1;" vertex="1" parent="lZOTxh8ugJPZSDa8sgHe-1">
          <mxGeometry x="77.5" y="650" width="170" height="30" as="geometry" />
        </mxCell>
        <mxCell id="UQgOUcCZ9-bR961eDMsj-18" value="&lt;font style=&quot;font-size: 14px;&quot;&gt;&lt;b&gt;Loan Management System&lt;/b&gt;&lt;/font&gt;" style="text;html=1;align=center;verticalAlign=middle;whiteSpace=wrap;rounded=0;" vertex="1" parent="lZOTxh8ugJPZSDa8sgHe-1">
          <mxGeometry x="42.5" y="10" width="240" height="30" as="geometry" />
        </mxCell>
        <mxCell id="UQgOUcCZ9-bR961eDMsj-27" style="rounded=0;orthogonalLoop=1;jettySize=auto;html=1;exitX=0.5;exitY=0.5;exitDx=0;exitDy=0;exitPerimeter=0;entryX=0;entryY=0.5;entryDx=0;entryDy=0;endArrow=none;endFill=0;" edge="1" parent="1" source="UQgOUcCZ9-bR961eDMsj-20" target="UQgOUcCZ9-bR961eDMsj-1">
          <mxGeometry relative="1" as="geometry" />
        </mxCell>
        <mxCell id="UQgOUcCZ9-bR961eDMsj-28" style="rounded=0;orthogonalLoop=1;jettySize=auto;html=1;exitX=0.5;exitY=0.5;exitDx=0;exitDy=0;exitPerimeter=0;entryX=0;entryY=0.5;entryDx=0;entryDy=0;endArrow=none;endFill=0;" edge="1" parent="1" source="UQgOUcCZ9-bR961eDMsj-20" target="UQgOUcCZ9-bR961eDMsj-2">
          <mxGeometry relative="1" as="geometry" />
        </mxCell>
        <mxCell id="UQgOUcCZ9-bR961eDMsj-30" style="rounded=0;orthogonalLoop=1;jettySize=auto;html=1;exitX=0.5;exitY=0.5;exitDx=0;exitDy=0;exitPerimeter=0;entryX=0;entryY=0.5;entryDx=0;entryDy=0;endArrow=none;endFill=0;" edge="1" parent="1" source="UQgOUcCZ9-bR961eDMsj-20" target="UQgOUcCZ9-bR961eDMsj-3">
          <mxGeometry relative="1" as="geometry" />
        </mxCell>
        <mxCell id="UQgOUcCZ9-bR961eDMsj-31" style="rounded=0;orthogonalLoop=1;jettySize=auto;html=1;exitX=0.5;exitY=0.5;exitDx=0;exitDy=0;exitPerimeter=0;entryX=0;entryY=0.5;entryDx=0;entryDy=0;endArrow=none;endFill=0;" edge="1" parent="1" source="UQgOUcCZ9-bR961eDMsj-20" target="UQgOUcCZ9-bR961eDMsj-4">
          <mxGeometry relative="1" as="geometry" />
        </mxCell>
        <mxCell id="UQgOUcCZ9-bR961eDMsj-20" value="Loan Applicants&lt;span style=&quot;color: rgba(0, 0, 0, 0); font-family: monospace; font-size: 0px; text-align: start;&quot;&gt;%3CmxGraphModel%3E%3Croot%3E%3CmxCell%20id%3D%220%22%2F%3E%3CmxCell%20id%3D%221%22%20parent%3D%220%22%2F%3E%3CmxCell%20id%3D%222%22%20value%3D%22Roal%20Authorize%22%20style%3D%22ellipse%3BwhiteSpace%3Dwrap%3Bhtml%3D1%3B%22%20vertex%3D%221%22%20parent%3D%221%22%3E%3CmxGeometry%20x%3D%22370%22%20y%3D%22710%22%20width%3D%22140%22%20height%3D%2230%22%20as%3D%22geometry%22%2F%3E%3C%2FmxCell%3E%3C%2Froot%3E%3C%2FmxGraphModel%3E&lt;/span&gt;" style="shape=umlActor;html=1;verticalLabelPosition=bottom;verticalAlign=top;align=center;" vertex="1" parent="1">
          <mxGeometry x="130" y="190" width="30" height="60" as="geometry" />
        </mxCell>
        <mxCell id="UQgOUcCZ9-bR961eDMsj-32" style="rounded=0;orthogonalLoop=1;jettySize=auto;html=1;exitX=0.5;exitY=0.5;exitDx=0;exitDy=0;exitPerimeter=0;entryX=0;entryY=0.5;entryDx=0;entryDy=0;endArrow=none;endFill=0;" edge="1" parent="1" source="UQgOUcCZ9-bR961eDMsj-21" target="UQgOUcCZ9-bR961eDMsj-1">
          <mxGeometry relative="1" as="geometry" />
        </mxCell>
        <mxCell id="UQgOUcCZ9-bR961eDMsj-33" style="rounded=0;orthogonalLoop=1;jettySize=auto;html=1;exitX=0.5;exitY=0.5;exitDx=0;exitDy=0;exitPerimeter=0;entryX=0;entryY=0.5;entryDx=0;entryDy=0;endArrow=none;endFill=0;" edge="1" parent="1" source="UQgOUcCZ9-bR961eDMsj-21" target="UQgOUcCZ9-bR961eDMsj-5">
          <mxGeometry relative="1" as="geometry" />
        </mxCell>
        <mxCell id="UQgOUcCZ9-bR961eDMsj-34" style="rounded=0;orthogonalLoop=1;jettySize=auto;html=1;exitX=0.5;exitY=0.5;exitDx=0;exitDy=0;exitPerimeter=0;entryX=0;entryY=0.5;entryDx=0;entryDy=0;endArrow=none;endFill=0;" edge="1" parent="1" source="UQgOUcCZ9-bR961eDMsj-21" target="UQgOUcCZ9-bR961eDMsj-6">
          <mxGeometry relative="1" as="geometry" />
        </mxCell>
        <mxCell id="UQgOUcCZ9-bR961eDMsj-35" style="rounded=0;orthogonalLoop=1;jettySize=auto;html=1;exitX=0.5;exitY=0.5;exitDx=0;exitDy=0;exitPerimeter=0;entryX=0;entryY=0.5;entryDx=0;entryDy=0;endArrow=none;endFill=0;" edge="1" parent="1" source="UQgOUcCZ9-bR961eDMsj-21" target="UQgOUcCZ9-bR961eDMsj-7">
          <mxGeometry relative="1" as="geometry" />
        </mxCell>
        <mxCell id="UQgOUcCZ9-bR961eDMsj-36" style="rounded=0;orthogonalLoop=1;jettySize=auto;html=1;exitX=0.5;exitY=0.5;exitDx=0;exitDy=0;exitPerimeter=0;entryX=0;entryY=0.5;entryDx=0;entryDy=0;endArrow=none;endFill=0;" edge="1" parent="1" source="UQgOUcCZ9-bR961eDMsj-21" target="UQgOUcCZ9-bR961eDMsj-8">
          <mxGeometry relative="1" as="geometry" />
        </mxCell>
        <mxCell id="UQgOUcCZ9-bR961eDMsj-21" value="Loan Officer" style="shape=umlActor;html=1;verticalLabelPosition=bottom;verticalAlign=top;align=center;" vertex="1" parent="1">
          <mxGeometry x="130" y="330" width="30" height="60" as="geometry" />
        </mxCell>
        <mxCell id="UQgOUcCZ9-bR961eDMsj-37" style="rounded=0;orthogonalLoop=1;jettySize=auto;html=1;exitX=0.5;exitY=0.5;exitDx=0;exitDy=0;exitPerimeter=0;entryX=1;entryY=0.5;entryDx=0;entryDy=0;endArrow=none;endFill=0;" edge="1" parent="1" source="UQgOUcCZ9-bR961eDMsj-23" target="UQgOUcCZ9-bR961eDMsj-1">
          <mxGeometry relative="1" as="geometry" />
        </mxCell>
        <mxCell id="UQgOUcCZ9-bR961eDMsj-38" style="rounded=0;orthogonalLoop=1;jettySize=auto;html=1;exitX=0.5;exitY=0.5;exitDx=0;exitDy=0;exitPerimeter=0;entryX=1;entryY=0.5;entryDx=0;entryDy=0;endArrow=none;endFill=0;" edge="1" parent="1" source="UQgOUcCZ9-bR961eDMsj-23" target="UQgOUcCZ9-bR961eDMsj-5">
          <mxGeometry relative="1" as="geometry" />
        </mxCell>
        <mxCell id="UQgOUcCZ9-bR961eDMsj-39" style="rounded=0;orthogonalLoop=1;jettySize=auto;html=1;exitX=0.5;exitY=0.5;exitDx=0;exitDy=0;exitPerimeter=0;entryX=1;entryY=0.5;entryDx=0;entryDy=0;endArrow=none;endFill=0;" edge="1" parent="1" source="UQgOUcCZ9-bR961eDMsj-23" target="UQgOUcCZ9-bR961eDMsj-7">
          <mxGeometry relative="1" as="geometry" />
        </mxCell>
        <mxCell id="UQgOUcCZ9-bR961eDMsj-40" style="rounded=0;orthogonalLoop=1;jettySize=auto;html=1;exitX=0.5;exitY=0.5;exitDx=0;exitDy=0;exitPerimeter=0;entryX=1;entryY=0.5;entryDx=0;entryDy=0;endArrow=none;endFill=0;" edge="1" parent="1" source="UQgOUcCZ9-bR961eDMsj-23" target="UQgOUcCZ9-bR961eDMsj-9">
          <mxGeometry relative="1" as="geometry" />
        </mxCell>
        <mxCell id="UQgOUcCZ9-bR961eDMsj-41" style="rounded=0;orthogonalLoop=1;jettySize=auto;html=1;exitX=0.5;exitY=0.5;exitDx=0;exitDy=0;exitPerimeter=0;entryX=1;entryY=0.5;entryDx=0;entryDy=0;endArrow=none;endFill=0;" edge="1" parent="1" source="UQgOUcCZ9-bR961eDMsj-23" target="UQgOUcCZ9-bR961eDMsj-10">
          <mxGeometry relative="1" as="geometry" />
        </mxCell>
        <mxCell id="UQgOUcCZ9-bR961eDMsj-42" style="rounded=0;orthogonalLoop=1;jettySize=auto;html=1;exitX=0.5;exitY=0.5;exitDx=0;exitDy=0;exitPerimeter=0;entryX=1;entryY=0.5;entryDx=0;entryDy=0;endArrow=none;endFill=0;" edge="1" parent="1" source="UQgOUcCZ9-bR961eDMsj-23" target="UQgOUcCZ9-bR961eDMsj-11">
          <mxGeometry relative="1" as="geometry" />
        </mxCell>
        <mxCell id="UQgOUcCZ9-bR961eDMsj-43" style="rounded=0;orthogonalLoop=1;jettySize=auto;html=1;exitX=0.5;exitY=0.5;exitDx=0;exitDy=0;exitPerimeter=0;entryX=1;entryY=0.5;entryDx=0;entryDy=0;endArrow=none;endFill=0;" edge="1" parent="1" source="UQgOUcCZ9-bR961eDMsj-23" target="UQgOUcCZ9-bR961eDMsj-12">
          <mxGeometry relative="1" as="geometry" />
        </mxCell>
        <mxCell id="UQgOUcCZ9-bR961eDMsj-23" value="Loan Manager" style="shape=umlActor;html=1;verticalLabelPosition=bottom;verticalAlign=top;align=center;" vertex="1" parent="1">
          <mxGeometry x="690" y="370" width="30" height="60" as="geometry" />
        </mxCell>
        <mxCell id="UQgOUcCZ9-bR961eDMsj-44" style="rounded=0;orthogonalLoop=1;jettySize=auto;html=1;exitX=0.5;exitY=0.5;exitDx=0;exitDy=0;exitPerimeter=0;entryX=0;entryY=0.5;entryDx=0;entryDy=0;endArrow=none;endFill=0;" edge="1" parent="1" source="UQgOUcCZ9-bR961eDMsj-24" target="UQgOUcCZ9-bR961eDMsj-17">
          <mxGeometry relative="1" as="geometry">
            <Array as="points">
              <mxPoint x="230" y="640" />
            </Array>
          </mxGeometry>
        </mxCell>
        <mxCell id="UQgOUcCZ9-bR961eDMsj-45" style="rounded=0;orthogonalLoop=1;jettySize=auto;html=1;exitX=0.5;exitY=0.5;exitDx=0;exitDy=0;exitPerimeter=0;entryX=0;entryY=0.5;entryDx=0;entryDy=0;endArrow=none;endFill=0;" edge="1" parent="1" source="UQgOUcCZ9-bR961eDMsj-24" target="UQgOUcCZ9-bR961eDMsj-16">
          <mxGeometry relative="1" as="geometry" />
        </mxCell>
        <mxCell id="UQgOUcCZ9-bR961eDMsj-46" style="rounded=0;orthogonalLoop=1;jettySize=auto;html=1;exitX=0.5;exitY=0.5;exitDx=0;exitDy=0;exitPerimeter=0;entryX=0;entryY=0.5;entryDx=0;entryDy=0;endArrow=none;endFill=0;" edge="1" parent="1" source="UQgOUcCZ9-bR961eDMsj-24" target="UQgOUcCZ9-bR961eDMsj-15">
          <mxGeometry relative="1" as="geometry" />
        </mxCell>
        <mxCell id="UQgOUcCZ9-bR961eDMsj-47" style="rounded=0;orthogonalLoop=1;jettySize=auto;html=1;exitX=0.5;exitY=0.5;exitDx=0;exitDy=0;exitPerimeter=0;entryX=0;entryY=0.5;entryDx=0;entryDy=0;endArrow=none;endFill=0;" edge="1" parent="1" source="UQgOUcCZ9-bR961eDMsj-24" target="UQgOUcCZ9-bR961eDMsj-13">
          <mxGeometry relative="1" as="geometry" />
        </mxCell>
        <mxCell id="UQgOUcCZ9-bR961eDMsj-48" style="rounded=0;orthogonalLoop=1;jettySize=auto;html=1;exitX=0.5;exitY=0.5;exitDx=0;exitDy=0;exitPerimeter=0;entryX=0;entryY=0.5;entryDx=0;entryDy=0;endArrow=none;endFill=0;" edge="1" parent="1" source="UQgOUcCZ9-bR961eDMsj-24" target="UQgOUcCZ9-bR961eDMsj-1">
          <mxGeometry relative="1" as="geometry" />
        </mxCell>
        <mxCell id="UQgOUcCZ9-bR961eDMsj-49" style="rounded=0;orthogonalLoop=1;jettySize=auto;html=1;exitX=0.5;exitY=0.5;exitDx=0;exitDy=0;exitPerimeter=0;entryX=0;entryY=0.5;entryDx=0;entryDy=0;endArrow=none;endFill=0;" edge="1" parent="1" source="UQgOUcCZ9-bR961eDMsj-24" target="UQgOUcCZ9-bR961eDMsj-9">
          <mxGeometry relative="1" as="geometry" />
        </mxCell>
        <mxCell id="UQgOUcCZ9-bR961eDMsj-50" style="rounded=0;orthogonalLoop=1;jettySize=auto;html=1;exitX=0.5;exitY=0.5;exitDx=0;exitDy=0;exitPerimeter=0;entryX=0;entryY=0.5;entryDx=0;entryDy=0;endArrow=none;endFill=0;" edge="1" parent="1" source="UQgOUcCZ9-bR961eDMsj-24" target="UQgOUcCZ9-bR961eDMsj-12">
          <mxGeometry relative="1" as="geometry" />
        </mxCell>
        <mxCell id="UQgOUcCZ9-bR961eDMsj-24" value="Admin" style="shape=umlActor;html=1;verticalLabelPosition=bottom;verticalAlign=top;align=center;" vertex="1" parent="1">
          <mxGeometry x="130" y="520" width="30" height="60" as="geometry" />
        </mxCell>
      </root>
    </mxGraphModel>
  </diagram>
</mxfile>
